<svg width="954" height="649" viewBox="0 0 954 649" fill="none" xmlns="http://www.w3.org/2000/svg">
<path d="M18.1673 433.568C18.8802 449.695 19.2367 457.759 22.6023 463.888C25.5646 469.283 30.1143 473.636 35.6344 476.357C41.9062 479.448 49.9776 479.448 66.1205 479.448H871.115C914.157 479.448 935.677 479.448 944.296 487.405C951.754 494.289 955.225 504.477 953.522 514.482C951.553 526.046 934.509 539.185 900.421 565.464L816.069 630.49C801.865 641.44 794.763 646.915 787.316 648.145C780.772 649.227 774.054 648.109 768.213 644.967C761.566 641.391 756.619 633.911 746.726 618.952L351.631 21.5226C346.428 13.6553 343.827 9.72162 340.379 6.87317C337.327 4.3515 333.807 2.45886 330.02 1.30426C325.742 0 321.026 0 311.594 0H49.1689C31.6847 0 22.9426 0 16.3828 3.4527C10.6161 6.48785 5.99455 11.3182 3.217 17.2133C0.0574268 23.9193 0.443523 32.6528 1.21571 50.1199L18.1673 433.568Z" fill="#0B132B"/>
<path d="M18.1673 433.568C18.8802 449.695 19.2367 457.759 22.6023 463.888C25.5646 469.283 30.1143 473.636 35.6344 476.357C41.9062 479.448 49.9776 479.448 66.1205 479.448H871.115C914.157 479.448 935.677 479.448 944.296 487.405C951.754 494.289 955.225 504.477 953.522 514.482C951.553 526.046 934.509 539.185 900.421 565.464L816.069 630.49C801.865 641.44 794.763 646.915 787.316 648.145C780.772 649.227 774.054 648.109 768.213 644.967C761.566 641.391 756.619 633.911 746.726 618.952L351.631 21.5226C346.428 13.6553 343.827 9.72162 340.379 6.87317C337.327 4.3515 333.807 2.45886 330.02 1.30426C325.742 0 321.026 0 311.594 0H49.1689C31.6847 0 22.9426 0 16.3828 3.4527C10.6161 6.48785 5.99455 11.3182 3.217 17.2133C0.0574268 23.9193 0.443523 32.6528 1.21571 50.1199L18.1673 433.568Z" fill="url(#paint0_linear_13_1075)" fill-opacity="0.07"/>
<defs>
<linearGradient id="paint0_linear_13_1075" x1="1012" y1="444.537" x2="332.429" y2="135.147" gradientUnits="userSpaceOnUse">
<stop offset="0.61496" stop-color="#D9D9D9"/>
<stop offset="1" stop-color="#D9D9D9" stop-opacity="0"/>
</linearGradient>
</defs>
</svg>
